<?xml version="1.0" encoding="iso-8859-1"?>
<!-- Generator: Adobe Illustrator 19.0.0, SVG Export Plug-In . SVG Version: 6.00 Build 0)  -->
<svg version="1.1" id="Capa_1" xmlns="http://www.w3.org/2000/svg" xmlns:xlink="http://www.w3.org/1999/xlink" x="0px" y="0px"
	 viewBox="0 0 512 512" style="enable-background:new 0 0 512 512;" xml:space="preserve">
<rect x="106.29" y="10" style="fill:#008EB0;" width="299.43" height="492"/>
<path d="M405.714,512H106.286c-5.523,0-10-4.477-10-10V10c0-5.523,4.477-10,10-10h299.429c5.523,0,10,4.477,10,10v492
	C415.714,507.523,411.237,512,405.714,512z M116.286,492h279.429V20H116.286V492z"/>
<rect x="146.289" y="50" style="fill:#A4DDF2;" width="219.43" height="216.71"/>
<rect x="146.289" y="266.71" style="fill:#4BC8F1;" width="219.43" height="195.29"/>
<path d="M365.714,40H146.285c-5.523,0-10,4.477-10,10v412c0,5.523,4.477,10,10,10h219.429c5.523,0,10-4.477,10-10V50
	C375.714,44.477,371.237,40,365.714,40z M156.285,60h199.429v196.71H156.285V60z M355.714,452H156.285V276.71h199.429V452H355.714z"
	/>
<polygon style="fill:#FFCF7C;" points="255.999,214.12 216.712,228.09 217.858,186.409 192.432,153.363 232.427,141.572 
	255.999,107.178 279.572,141.572 319.566,153.363 294.141,186.409 295.286,228.09 "/>
<path d="M295.286,238.09c-1.126,0-2.259-0.19-3.35-0.578l-35.936-12.779l-35.936,12.779c-3.107,1.105-6.56,0.607-9.229-1.332
	c-2.668-1.939-4.209-5.068-4.118-8.365l1.049-38.126l-23.258-30.229c-2.011-2.614-2.604-6.052-1.585-9.188
	c1.02-3.137,3.52-5.569,6.683-6.502l36.585-10.785l21.562-31.461c1.864-2.72,4.95-4.347,8.249-4.347
	c3.298,0,6.384,1.627,8.249,4.347l21.562,31.461l36.585,10.785c3.164,0.933,5.664,3.365,6.683,6.502s0.426,6.574-1.585,9.188
	l-23.258,30.229l1.049,38.126c0.091,3.297-1.45,6.426-4.118,8.365C299.433,237.439,297.37,238.09,295.286,238.09z M255.999,204.12
	c1.133,0,2.267,0.193,3.351,0.578l25.539,9.082l-0.745-27.096c-0.063-2.299,0.668-4.55,2.07-6.373l16.529-21.482l-26-7.665
	c-2.206-0.65-4.121-2.041-5.421-3.938l-15.323-22.359l-15.324,22.359c-1.3,1.897-3.215,3.288-5.421,3.938l-25.999,7.665
	l16.529,21.482c1.402,1.823,2.134,4.074,2.07,6.373l-0.745,27.096l25.539-9.082C253.732,204.313,254.867,204.12,255.999,204.12z"/>
<rect x="190.219" y="322.01" style="fill:#F0648B;" width="131.57" height="40.966"/>
<path d="M321.784,372.973H190.215c-5.523,0-10-4.477-10-10v-40.966c0-5.523,4.477-10,10-10h131.567c5.523,0,10,4.477,10,10v40.966
	C331.784,368.496,327.307,372.973,321.784,372.973z M200.215,352.973h111.567v-20.966H200.215V352.973z"/>
<path d="M321.78,411.21c-0.65,0-1.31-0.06-1.95-0.19s-1.27-0.32-1.87-0.57s-1.19-0.56-1.73-0.92c-0.54-0.37-1.06-0.78-1.52-1.25
	c-0.46-0.46-0.88-0.97-1.24-1.52c-0.36-0.54-0.67-1.12-0.92-1.72c-0.25-0.61-0.44-1.23-0.57-1.87c-0.13-0.65-0.2-1.3-0.2-1.96
	c0-0.65,0.07-1.31,0.2-1.95s0.32-1.27,0.57-1.87s0.56-1.19,0.92-1.73c0.36-0.55,0.78-1.06,1.24-1.52s0.98-0.88,1.52-1.24
	c0.54-0.36,1.13-0.67,1.73-0.92s1.23-0.44,1.87-0.57c1.289-0.26,2.62-0.26,3.91,0c0.64,0.13,1.26,0.32,1.87,0.57
	c0.6,0.25,1.18,0.56,1.72,0.92c0.55,0.36,1.059,0.78,1.52,1.24c0.47,0.461,0.88,0.97,1.25,1.52c0.36,0.54,0.67,1.13,0.92,1.73
	s0.44,1.23,0.57,1.87c0.13,0.64,0.19,1.3,0.19,1.95c0,0.66-0.06,1.31-0.19,1.96c-0.13,0.64-0.32,1.26-0.57,1.87
	c-0.25,0.6-0.56,1.18-0.92,1.72c-0.37,0.55-0.78,1.06-1.25,1.52c-0.46,0.47-0.97,0.88-1.52,1.25c-0.54,0.36-1.12,0.67-1.72,0.92
	c-0.61,0.25-1.23,0.44-1.87,0.57C323.09,411.15,322.44,411.21,321.78,411.21z"/>
<path d="M285.462,411.213h-95.246c-5.523,0-10-4.477-10-10s4.477-10,10-10h95.246c5.523,0,10,4.477,10,10
	C295.462,406.736,290.984,411.213,285.462,411.213z"/>
<g>
</g>
<g>
</g>
<g>
</g>
<g>
</g>
<g>
</g>
<g>
</g>
<g>
</g>
<g>
</g>
<g>
</g>
<g>
</g>
<g>
</g>
<g>
</g>
<g>
</g>
<g>
</g>
<g>
</g>
</svg>
