<?xml version="1.0" encoding="iso-8859-1"?>
<!-- Generator: Adobe Illustrator 19.0.0, SVG Export Plug-In . SVG Version: 6.00 Build 0)  -->
<svg version="1.1" id="Capa_1" xmlns="http://www.w3.org/2000/svg" xmlns:xlink="http://www.w3.org/1999/xlink" x="0px" y="0px"
	 viewBox="0 0 512 512" style="enable-background:new 0 0 512 512;" xml:space="preserve">
<g>
	<g>
		<path d="M405.715,0H106.285c-5.523,0-10,4.477-10,10v492c0,5.523,4.477,10,10,10h299.428c5.523,0,10-4.477,10.001-10V10
			C415.715,4.477,411.238,0,405.715,0z M395.715,492H116.285V20h279.429V492z"/>
	</g>
</g>
<g>
	<g>
		<path d="M365.713,40H146.285c-5.523,0-10,4.477-10,10v412c0,5.523,4.477,10,10,10h219.429c5.523,0,10-4.477,10-10V50
			C375.713,44.477,371.236,40,365.713,40z M355.715,452h-0.001H156.285V276.71h199.429V452z M355.715,256.71H156.285V60h199.429
			V256.71z"/>
	</g>
</g>
<g>
	<g>
		<path d="M329.08,150.272c-1.019-3.137-3.519-5.569-6.683-6.502l-36.585-10.785l-21.562-31.461
			c-1.865-2.72-4.951-4.347-8.249-4.347c-3.299,0-6.385,1.627-8.249,4.347l-21.562,31.461l-36.585,10.785
			c-3.163,0.933-5.663,3.365-6.683,6.502c-1.019,3.136-0.426,6.574,1.585,9.188l23.258,30.229l-1.049,38.126
			c-0.091,3.297,1.45,6.426,4.118,8.365c2.669,1.939,6.122,2.437,9.229,1.332l35.936-12.779l35.936,12.779
			c1.091,0.388,2.224,0.578,3.35,0.578c2.084,0,4.147-0.651,5.883-1.91c2.668-1.939,4.209-5.068,4.118-8.365l-1.049-38.126
			l23.258-30.229C329.507,156.846,330.1,153.409,329.08,150.272z M286.215,180.311c-1.402,1.823-2.133,4.074-2.07,6.373
			l0.745,27.096l-25.539-9.082c-1.084-0.385-2.218-0.578-3.351-0.578s-2.267,0.193-3.351,0.578l-25.539,9.082l0.745-27.096
			c0.064-2.299-0.668-4.55-2.07-6.373l-16.529-21.482l25.999-7.665c2.206-0.65,4.121-2.041,5.421-3.938l15.324-22.359l15.323,22.359
			c1.3,1.897,3.215,3.288,5.421,3.938l26,7.665L286.215,180.311z"/>
	</g>
</g>
<g>
	<g>
		<path d="M321.783,312.007H190.215c-5.523,0-10,4.477-10,10v40.966c0,5.523,4.477,10,10,10h131.568c5.523,0,10-4.477,9.999-10
			v-40.966C331.783,316.484,327.306,312.007,321.783,312.007z M311.783,352.973H200.215v-20.966h111.567V352.973z"/>
	</g>
</g>
<g>
	<g>
		<path d="M331.59,399.26c-0.13-0.64-0.32-1.27-0.57-1.87c-0.25-0.6-0.56-1.19-0.92-1.73c-0.37-0.55-0.78-1.059-1.25-1.52
			c-0.461-0.46-0.97-0.88-1.52-1.24c-0.54-0.36-1.12-0.67-1.72-0.92c-0.61-0.25-1.23-0.44-1.87-0.57c-1.29-0.26-2.621-0.26-3.91,0
			c-0.64,0.13-1.27,0.32-1.87,0.57c-0.6,0.25-1.19,0.56-1.73,0.92c-0.54,0.36-1.06,0.78-1.52,1.24c-0.46,0.46-0.88,0.97-1.24,1.52
			c-0.36,0.54-0.67,1.13-0.92,1.73c-0.25,0.6-0.44,1.23-0.57,1.87s-0.2,1.3-0.2,1.95c0,0.66,0.07,1.31,0.2,1.96
			c0.13,0.64,0.32,1.26,0.57,1.87c0.25,0.6,0.56,1.18,0.92,1.72c0.36,0.55,0.78,1.06,1.24,1.52c0.46,0.47,0.98,0.88,1.52,1.25
			c0.54,0.36,1.13,0.67,1.73,0.92c0.6,0.25,1.23,0.44,1.87,0.57s1.3,0.19,1.95,0.19c0.66,0,1.31-0.06,1.96-0.19
			c0.64-0.13,1.26-0.32,1.87-0.57c0.6-0.25,1.18-0.56,1.72-0.92c0.55-0.37,1.06-0.78,1.52-1.25c0.47-0.46,0.88-0.97,1.25-1.52
			c0.36-0.54,0.67-1.12,0.92-1.72c0.25-0.61,0.44-1.23,0.57-1.87c0.13-0.65,0.19-1.3,0.19-1.96
			C331.78,400.56,331.72,399.9,331.59,399.26z"/>
	</g>
</g>
<g>
	<g>
		<path d="M285.462,391.213h-95.246c-5.523,0-10,4.477-10,10s4.477,10,10,10h95.246c5.523,0,10-4.477,10-10
			C295.462,395.69,290.985,391.213,285.462,391.213z"/>
	</g>
</g>
<g>
</g>
<g>
</g>
<g>
</g>
<g>
</g>
<g>
</g>
<g>
</g>
<g>
</g>
<g>
</g>
<g>
</g>
<g>
</g>
<g>
</g>
<g>
</g>
<g>
</g>
<g>
</g>
<g>
</g>
</svg>
