<?xml version="1.0" encoding="iso-8859-1"?>
<!-- Generator: Adobe Illustrator 19.0.0, SVG Export Plug-In . SVG Version: 6.00 Build 0)  -->
<svg version="1.1" id="Capa_1" xmlns="http://www.w3.org/2000/svg" xmlns:xlink="http://www.w3.org/1999/xlink" x="0px" y="0px"
	 viewBox="0 0 512 512" style="enable-background:new 0 0 512 512;" xml:space="preserve">
<g>
	<polygon style="fill:#FF9929;" points="344.561,214.964 400.055,163.556 384.905,88.785 322.913,164.524 322.777,164.569 	"/>
	<polygon style="fill:#FF9929;" points="167.441,214.964 188.98,165.138 128.082,89.77 112.945,164.479 	"/>
</g>
<path style="fill:#FFC477;" d="M502.001,69.114l-39.36,323.283H49.361L10.001,69.114l157.44,145.85l88.56-204.867l88.56,204.867
	L502.001,69.114z"/>
<path d="M58.218,382.397h395.567l34.991-287.4L351.358,222.3c-2.381,2.205-5.688,3.118-8.858,2.449
	c-3.176-0.67-5.829-2.839-7.116-5.817L256.001,35.299L176.62,218.932c-1.288,2.979-3.941,5.147-7.116,5.817
	s-6.478-0.243-8.859-2.449L23.226,94.996L58.218,382.397z"/>
<path style="fill:#FFC477;" d="M502.001,69.114l-39.36,323.283H49.361L10.001,69.114l157.44,145.85l88.56-204.867l88.56,204.867
	L502.001,69.114z"/>
<rect x="48.9" y="392.4" style="fill:#FF9929;" width="414.2" height="109.51"/>
<path d="M506.551,60.208c-3.734-1.909-8.267-1.282-11.346,1.569l-88.753,82.219l-11.751-57.223
	c-0.777-3.781-3.661-6.778-7.409-7.699c-3.75-0.919-7.692,0.397-10.134,3.389l-51.631,63.267L265.18,6.129
	c-1.582-3.662-5.189-6.032-9.179-6.032c-3.989,0-7.596,2.37-9.179,6.032l-60.515,139.99l-50.438-62.622
	c-2.428-3.015-6.379-4.357-10.143-3.446c-3.763,0.912-6.662,3.914-7.44,7.707l-11.739,57.163l-89.75-83.143
	c-3.078-2.851-7.61-3.478-11.346-1.569c-3.737,1.909-5.884,5.948-5.377,10.114l38.991,320.255c-0.108,0.59-0.166,1.198-0.166,1.819
	v109.507c0,5.522,4.477,10,10,10h414.203c5.522,0,10-4.478,10-10V392.397c0-0.622-0.057-1.231-0.166-1.822l38.991-320.252
	C512.435,66.157,510.288,62.118,506.551,60.208z M379.344,111.416l9.954,48.472l-41.165,38.135l-13.667-31.615L379.344,111.416z
	 M133.607,112.573l43.731,54.295l-13.468,31.156l-40.169-37.212L133.607,112.573z M453.103,491.904H58.9v-89.507h394.203V491.904z
	 M453.785,382.397H58.218l-34.991-287.4L160.645,222.3c2.381,2.206,5.684,3.119,8.859,2.449c3.175-0.67,5.829-2.839,7.116-5.817
	l79.381-183.633l79.382,183.633c1.287,2.979,3.94,5.147,7.116,5.817c3.17,0.669,6.478-0.244,8.858-2.449L488.776,94.996
	L453.785,382.397z"/>
<polygon style="fill:#F24141;" points="256.001,290.753 210.941,226.492 256.001,162.231 301.061,226.492 "/>
<path d="M256.001,300.753c-3.26,0-6.316-1.59-8.188-4.259l-45.06-64.262c-2.417-3.446-2.417-8.036,0-11.482l45.06-64.261
	c1.872-2.67,4.927-4.259,8.188-4.259c3.261,0,6.315,1.589,8.187,4.259l45.06,64.261c2.417,3.446,2.417,8.036,0,11.482l-45.06,64.262
	C262.318,299.163,259.262,300.753,256.001,300.753z M223.155,226.492l32.846,46.843l32.846-46.844l-32.846-46.842L223.155,226.492z"
	/>
<ellipse style="fill:#2C7B7E;" cx="399.241" cy="447.15" rx="25.584" ry="25.574"/>
<path d="M399.243,482.724c-19.621,0-35.584-15.959-35.584-35.574s15.963-35.573,35.584-35.573s35.584,15.958,35.584,35.573
	S418.864,482.724,399.243,482.724z M399.243,431.576c-8.593,0-15.584,6.986-15.584,15.573c0,8.588,6.991,15.574,15.584,15.574
	s15.584-6.986,15.584-15.574C414.827,438.563,407.835,431.576,399.243,431.576z"/>
<ellipse style="fill:#B0DBD0;" cx="303.751" cy="447.15" rx="25.584" ry="25.574"/>
<path d="M303.748,482.724c-19.621,0-35.584-15.959-35.584-35.574s15.963-35.573,35.584-35.573s35.584,15.958,35.584,35.573
	S323.369,482.724,303.748,482.724z M303.748,431.576c-8.593,0-15.584,6.986-15.584,15.573c0,8.588,6.991,15.574,15.584,15.574
	s15.584-6.986,15.584-15.574C319.332,438.563,312.341,431.576,303.748,431.576z"/>
<ellipse style="fill:#2C7B7E;" cx="208.251" cy="447.15" rx="25.584" ry="25.574"/>
<path d="M208.254,482.724c-19.621,0-35.584-15.959-35.584-35.574s15.963-35.573,35.584-35.573s35.584,15.958,35.584,35.573
	S227.875,482.724,208.254,482.724z M208.254,431.576c-8.593,0-15.584,6.986-15.584,15.573c0,8.588,6.991,15.574,15.584,15.574
	s15.584-6.986,15.584-15.574C223.838,438.563,216.847,431.576,208.254,431.576z"/>
<ellipse style="fill:#B0DBD0;" cx="112.761" cy="447.15" rx="25.584" ry="25.574"/>
<path d="M112.76,482.724c-19.621,0-35.584-15.959-35.584-35.574s15.963-35.573,35.584-35.573s35.584,15.958,35.584,35.573
	S132.381,482.724,112.76,482.724z M112.76,431.576c-8.593,0-15.584,6.986-15.584,15.573c0,8.588,6.991,15.574,15.584,15.574
	s15.584-6.986,15.584-15.574C128.344,438.563,121.353,431.576,112.76,431.576z"/>
<path d="M426.887,362.042h-47.754c-5.522,0-10-4.478-10-10s4.478-10,10-10h38.897l16.026-131.641
	c0.667-5.482,5.641-9.393,11.136-8.719c5.481,0.667,9.385,5.653,8.718,11.136l-17.097,140.433
	C436.202,358.269,431.943,362.042,426.887,362.042z"/>
<path d="M340.782,362.04c-0.65,0-1.311-0.07-1.95-0.2c-0.641-0.12-1.271-0.32-1.88-0.57c-0.601-0.25-1.181-0.55-1.721-0.91
	c-0.55-0.369-1.06-0.79-1.52-1.25s-0.88-0.97-1.24-1.52c-0.36-0.54-0.67-1.12-0.92-1.72c-0.25-0.61-0.45-1.24-0.57-1.87
	c-0.13-0.65-0.199-1.311-0.199-1.96c0-0.65,0.069-1.311,0.199-1.95c0.12-0.64,0.32-1.271,0.57-1.87c0.25-0.61,0.55-1.19,0.91-1.729
	c0.37-0.551,0.79-1.061,1.25-1.521s0.97-0.88,1.52-1.24c0.54-0.359,1.12-0.67,1.721-0.92c0.609-0.25,1.239-0.45,1.88-0.569
	c1.279-0.261,2.609-0.261,3.899,0c0.641,0.119,1.271,0.319,1.87,0.569c0.61,0.25,1.19,0.561,1.73,0.92
	c0.55,0.36,1.06,0.78,1.52,1.24s0.88,0.97,1.24,1.521c0.36,0.539,0.67,1.119,0.92,1.729c0.25,0.6,0.45,1.23,0.57,1.87
	c0.13,0.64,0.2,1.3,0.2,1.95c0,0.649-0.07,1.31-0.2,1.96c-0.12,0.63-0.32,1.26-0.57,1.87c-0.25,0.6-0.56,1.18-0.92,1.72
	c-0.36,0.55-0.78,1.06-1.24,1.52s-0.97,0.881-1.52,1.25c-0.54,0.36-1.12,0.66-1.73,0.91c-0.6,0.25-1.229,0.45-1.87,0.57
	C342.091,361.97,341.431,362.04,340.782,362.04z"/>
<path d="M302.389,362.042H85.117c-5.056,0-9.316-3.773-9.927-8.791L58.092,212.819c-0.667-5.482,3.236-10.468,8.718-11.136
	c5.477-0.672,10.467,3.236,11.135,8.718l16.027,131.642h208.416c5.522,0,10,4.478,10,10S307.911,362.042,302.389,362.042z"/>
<g>
</g>
<g>
</g>
<g>
</g>
<g>
</g>
<g>
</g>
<g>
</g>
<g>
</g>
<g>
</g>
<g>
</g>
<g>
</g>
<g>
</g>
<g>
</g>
<g>
</g>
<g>
</g>
<g>
</g>
</svg>
