<?xml version="1.0" encoding="iso-8859-1"?>
<!-- Generator: Adobe Illustrator 19.0.0, SVG Export Plug-In . SVG Version: 6.00 Build 0)  -->
<svg version="1.1" id="Capa_1" xmlns="http://www.w3.org/2000/svg" xmlns:xlink="http://www.w3.org/1999/xlink" x="0px" y="0px"
	 viewBox="0 0 512 512" style="enable-background:new 0 0 512 512;" xml:space="preserve">
<polygon style="fill:#686C83;" points="501.997,501.998 316.846,10.003 195.153,10.003 10.003,501.998 "/>
<g>
	<polygon  style="fill:white;"  points="10.003,285.187 145.854,10.003 195.153,10.003 10.003,501.998 	"/>
	<polygon  style="fill:white;"  points="502.006,285.187 366.154,10.003 316.855,10.003 502.006,501.998 	"/>
</g>
<path style="fill:#fef014;" d="M256,511.997c-5.523,0-10-4.477-10-10v-58.4c0-5.523,4.477-10,10-10c5.523,0,10,4.477,10,10v58.4
	C266,507.521,261.523,511.997,256,511.997z"/>
<path style="fill:#fef014;" d="M256,403.6c-5.523,0-10-4.477-10-10v-58.401c0-5.523,4.477-10,10-10c5.523,0,10,4.477,10,10V393.6
	C266,399.123,261.523,403.6,256,403.6z"/>
<path style="fill:#fef014;" d="M256,295.201c-5.523,0-10-4.477-10-10v-58.4c0-5.523,4.477-10,10-10c5.523,0,10,4.477,10,10v58.4
	C266,290.724,261.523,295.201,256,295.201z"/>
<path style="fill:#fef014;" d="M256,186.802c-5.523,0-10-4.477-10-10v-58.401c0-5.523,4.477-10,10-10c5.523,0,10,4.477,10,10v58.401
	C266,182.325,261.523,186.802,256,186.802z"/>
<path style="fill:#fef014;" d="M256,78.405c-5.523,0-10-4.477-10-10V10.003c0-5.523,4.477-10,10-10c5.523,0,10,4.477,10,10v58.4
	C266,73.928,261.523,78.405,256,78.405z"/>
<path d="M10.002,512c-1.171,0-2.36-0.207-3.521-0.644c-5.169-1.945-7.782-7.712-5.837-12.881L185.795,6.481
	c1.945-5.17,7.714-7.783,12.881-5.837c5.169,1.945,7.782,7.712,5.837,12.881L19.362,505.52C17.854,509.529,14.046,512,10.002,512z"
	/>
<path style="fill:white;"  d="M100.941,110.969c-1.487,0-2.996-0.333-4.419-1.036c-4.952-2.445-6.985-8.441-4.54-13.394l44.906-90.964
	c2.444-4.952,8.442-6.985,13.394-4.54s6.985,8.441,4.54,13.394l-44.906,90.964C108.173,108.923,104.627,110.969,100.941,110.969z"/>
<path  style="fill:white;"  d="M83.66,145.973c-1.487,0-2.996-0.333-4.419-1.036c-4.952-2.445-6.984-8.442-4.539-13.394l0.058-0.118
	c2.445-4.953,8.444-6.984,13.394-4.539c4.952,2.445,6.984,8.442,4.539,13.394l-0.058,0.118
	C90.892,143.927,87.346,145.973,83.66,145.973z"/>
<path  style="fill:white;" d="M9.996,295.19c-1.487,0-2.996-0.333-4.419-1.036c-4.952-2.445-6.985-8.441-4.54-13.394l54.911-111.229
	c2.445-4.952,8.441-6.985,13.394-4.54c4.952,2.445,6.985,8.441,4.54,13.394L18.97,289.614
	C17.228,293.143,13.682,295.19,9.996,295.19z"/>
<path d="M420.407,295.19c-4.045,0-7.852-2.472-9.361-6.481L307.486,13.525c-1.945-5.169,0.668-10.936,5.837-12.881
	c5.168-1.943,10.936,0.668,12.881,5.837l103.561,275.184c1.945,5.169-0.668,10.936-5.837,12.881
	C422.768,294.983,421.577,295.19,420.407,295.19z"/>
<path d="M434.214,331.881c-4.043,0-7.849-2.47-9.359-6.477l-0.149-0.396c-1.948-5.168,0.663-10.937,5.831-12.884
	c5.168-1.947,10.937,0.663,12.884,5.831l0.149,0.396c1.948,5.168-0.663,10.937-5.831,12.884
	C436.578,331.673,435.386,331.881,434.214,331.881z"/>
<path d="M501.999,512c-4.045,0-7.852-2.472-9.361-6.481l-53.156-141.273c-1.945-5.169,0.668-10.936,5.838-12.881
	c5.169-1.947,10.936,0.669,12.881,5.838l53.156,141.272c1.945,5.169-0.669,10.936-5.838,12.881
	C504.359,511.793,503.168,512,501.999,512z"/>
<path  style="fill:white;" d="M502.005,295.19c-3.687,0-7.232-2.046-8.975-5.576L357.179,14.43c-2.445-4.952-0.412-10.949,4.54-13.394
	c4.95-2.446,10.949-0.413,13.394,4.54L510.964,280.76c2.445,4.952,0.412,10.949-4.54,13.394
	C505.001,294.857,503.491,295.19,502.005,295.19z"/>
<g>
</g>
<g>
</g>
<g>
</g>
<g>
</g>
<g>
</g>
<g>
</g>
<g>
</g>
<g>
</g>
<g>
</g>
<g>
</g>
<g>
</g>
<g>
</g>
<g>
</g>
<g>
</g>
<g>
</g>
</svg>
